<svg width="46" height="44" viewBox="0 0 46 44" fill="none" xmlns="http://www.w3.org/2000/svg">
<path id="aj-utilisateur-icon" d="M42.2729 19.2479H25.3637V2.74971C25.3637 2.02044 25.0668 1.32104 24.5383 0.805371C24.0098 0.289701 23.293 0 22.5455 0C21.7981 0 21.0813 0.289701 20.5528 0.805371C20.0243 1.32104 19.7273 2.02044 19.7273 2.74971V19.2479H2.81819C2.07076 19.2479 1.35394 19.5376 0.82543 20.0533C0.296916 20.569 0 21.2684 0 21.9977C0 22.7269 0.296916 23.4263 0.82543 23.942C1.35394 24.4577 2.07076 24.7474 2.81819 24.7474H19.7273V41.2456C19.7273 41.9749 20.0243 42.6743 20.5528 43.1899C21.0813 43.7056 21.7981 43.9953 22.5455 43.9953C23.293 43.9953 24.0098 43.7056 24.5383 43.1899C25.0668 42.6743 25.3637 41.9749 25.3637 41.2456V24.7474H42.2729C43.0203 24.7474 43.7371 24.4577 44.2657 23.942C44.7942 23.4263 45.0911 22.7269 45.0911 21.9977C45.0911 21.2684 44.7942 20.569 44.2657 20.0533C43.7371 19.5376 43.0203 19.2479 42.2729 19.2479Z" fill="#7675D2"/>
</svg>
