<svg width="75" height="67" viewBox="0 0 75 67" fill="none" xmlns="http://www.w3.org/2000/svg">
<path id="dashbord-icon" d="M63.761 9.89338C63.7337 9.86723 63.7255 9.83247 63.697 9.80692C63.6685 9.78137 63.6291 9.7736 63.5998 9.74889C56.6204 3.5057 47.1679 0 37.3134 0C27.459 0 18.0064 3.5057 11.0271 9.74889C10.9977 9.7736 10.9586 9.78117 10.9299 9.80692C10.9012 9.83267 10.8932 9.8672 10.8659 9.89338C5.66534 14.5828 2.12929 20.5496 0.703992 27.0407C-0.721307 33.5319 0.0280268 40.2565 2.85742 46.3658C5.68682 52.4752 10.4695 57.6954 16.6018 61.3678C22.734 65.0402 29.9411 67 37.3134 67C44.6857 67 51.8928 65.0402 58.0251 61.3678C64.1574 57.6954 68.94 52.4752 71.7694 46.3658C74.5988 40.2565 75.3482 33.5319 73.9229 27.0407C72.4976 20.5496 68.9615 14.5828 63.761 9.89338ZM37.3132 60.2739C32.8441 60.2725 28.4325 59.3689 24.4053 57.63C20.3781 55.8911 16.8383 53.3613 14.0483 50.2282H29.0307C30.0683 51.2809 31.3433 52.1237 32.7711 52.701C34.199 53.2783 35.7472 53.5768 37.3132 53.5768C38.8793 53.5768 40.4275 53.2783 41.8554 52.701C43.2832 52.1237 44.5582 51.2809 45.5958 50.2282H60.5783C57.7883 53.3614 54.2486 55.8911 50.2213 57.63C46.194 59.369 41.7824 60.2726 37.3132 60.2739ZM33.5819 43.5311C33.5819 42.8688 33.8007 42.2214 34.2107 41.6708C34.6208 41.1201 35.2035 40.6909 35.8853 40.4375C36.5671 40.184 37.3174 40.1177 38.0412 40.2469C38.765 40.3761 39.4299 40.695 39.9517 41.1633C40.4735 41.6316 40.8289 42.2283 40.9729 42.8778C41.1169 43.5274 41.043 44.2007 40.7606 44.8126C40.4781 45.4244 39.9999 45.9474 39.3863 46.3153C38.7727 46.6833 38.0512 46.8797 37.3132 46.8797C36.3239 46.8788 35.3754 46.5257 34.6759 45.8979C33.9763 45.2701 33.5829 44.4189 33.5819 43.5311ZM64.9633 43.5381L64.9248 43.5311H48.5073C48.5002 41.4604 47.779 39.4425 46.4428 37.7543C45.1067 36.0661 43.2209 34.7905 41.0446 34.1025V23.4398C41.0446 22.5517 40.6515 21.7 39.9517 21.0721C39.2519 20.4441 38.3029 20.0913 37.3132 20.0913C36.3236 20.0913 35.3745 20.4441 34.6748 21.0721C33.975 21.7 33.5819 22.5517 33.5819 23.4398V34.1025C31.4056 34.7905 29.5198 36.0661 28.1837 37.7543C26.8475 39.4425 26.1263 41.4604 26.1192 43.5311H9.70169L9.66318 43.5381C8.69265 41.389 8.03994 39.1352 7.72169 36.834H11.1939C12.1835 36.834 13.1325 36.4812 13.8323 35.8533C14.5321 35.2253 14.9252 34.3736 14.9252 33.4855C14.9252 32.5974 14.5321 31.7457 13.8323 31.1177C13.1325 30.4897 12.1835 30.1369 11.1939 30.1369H7.72169C8.38844 25.3772 10.4758 20.8676 13.763 17.0847L16.206 19.2771C16.5525 19.588 16.9638 19.8346 17.4164 20.0028C17.8691 20.1711 18.3542 20.2577 18.8442 20.2577C19.3342 20.2577 19.8193 20.1711 20.272 20.0028C20.7246 19.8346 21.1359 19.5879 21.4824 19.277C21.8288 18.9661 22.1036 18.597 22.2911 18.1908C22.4786 17.7846 22.5751 17.3492 22.5751 16.9095C22.5751 16.4698 22.4786 16.0344 22.2911 15.6282C22.1036 15.222 21.8288 14.8529 21.4824 14.542L19.0396 12.3498C23.2546 9.40075 28.279 7.5281 33.5819 6.92968V10.0456C33.5819 10.9337 33.975 11.7854 34.6748 12.4134C35.3745 13.0414 36.3236 13.3942 37.3132 13.3942C38.3029 13.3942 39.2519 13.0414 39.9517 12.4134C40.6515 11.7854 41.0446 10.9337 41.0446 10.0456V6.92968C46.3475 7.5281 51.3719 9.40075 55.5869 12.3498L53.1441 14.542C52.4444 15.1699 52.0514 16.0215 52.0514 16.9095C52.0513 17.7975 52.4444 18.6491 53.1441 19.277C53.8438 19.9049 54.7928 20.2577 55.7823 20.2577C56.7718 20.2577 57.7208 19.905 58.4205 19.2771L60.8635 17.0847C64.1507 20.8676 66.2381 25.3772 66.9048 30.1369H63.4326C62.443 30.1369 61.4939 30.4897 60.7942 31.1177C60.0944 31.7457 59.7013 32.5974 59.7013 33.4855C59.7013 34.3736 60.0944 35.2253 60.7942 35.8533C61.4939 36.4812 62.443 36.834 63.4326 36.834H66.9048C66.5866 39.1352 65.9338 41.389 64.9633 43.5381Z" fill="#7675D2"/>
</svg>
