<svg width="40" height="40" viewBox="0 0 40 40" fill="none" xmlns="http://www.w3.org/2000/svg">
<path id="Vector" d="M23.993 18.9738H28.8316C29.0948 18.9754 29.3556 18.9222 29.5992 18.8174C29.8428 18.7125 30.0644 18.558 30.2512 18.3628L39.4086 8.71346C39.596 8.5176 39.7447 8.28458 39.8462 8.02784C39.9477 7.7711 40 7.49573 40 7.2176C40 6.93947 39.9477 6.6641 39.8462 6.40736C39.7447 6.15062 39.596 5.9176 39.4086 5.72175L34.57 0.623199C34.3841 0.425728 34.163 0.268992 33.9193 0.16203C33.6757 0.055069 33.4143 0 33.1504 0C32.8864 0 32.6251 0.055069 32.3815 0.16203C32.1378 0.268992 31.9167 0.425728 31.7308 0.623199L22.5735 10.2725C22.2081 10.6763 22.001 11.2106 21.9936 11.7684V16.8669C21.9936 17.4257 22.2043 17.9616 22.5792 18.3567C22.9542 18.7518 23.4628 18.9738 23.993 18.9738ZM25.9925 12.6532L33.1504 5.11076L35.1498 7.2176L27.9919 14.7601H25.9925V12.6532ZM37.989 16.8669C37.4587 16.8669 36.9501 17.0889 36.5752 17.484C36.2002 17.8791 35.9896 18.415 35.9896 18.9738V33.7216C35.9896 34.2804 35.7789 34.8163 35.4039 35.2114C35.029 35.6065 34.5204 35.8285 33.9901 35.8285H5.99826C5.46798 35.8285 4.95942 35.6065 4.58446 35.2114C4.20949 34.8163 3.99884 34.2804 3.99884 33.7216V13.4749L15.7554 25.8842C16.3134 26.4798 16.9781 26.9527 17.7108 27.2755C18.4436 27.5982 19.23 27.7644 20.0242 27.7644C20.8184 27.7644 21.6048 27.5982 22.3375 27.2755C23.0703 26.9527 23.735 26.4798 24.293 25.8842C24.6593 25.4904 24.8645 24.9609 24.8645 24.4094C24.8645 23.8579 24.6593 23.3284 24.293 22.9346C24.1067 22.7339 23.8844 22.5745 23.6389 22.4656C23.3934 22.3568 23.1297 22.3007 22.8634 22.3007C22.597 22.3007 22.3334 22.3568 22.0879 22.4656C21.8424 22.5745 21.62 22.7339 21.4338 22.9346C21.06 23.3206 20.5575 23.5369 20.0342 23.5369C19.5108 23.5369 19.0083 23.3206 18.6346 22.9346L6.81802 10.5043H15.9954C16.5256 10.5043 17.0342 10.2823 17.4092 9.88719C17.7841 9.49208 17.9948 8.9562 17.9948 8.39743C17.9948 7.83866 17.7841 7.30278 17.4092 6.90767C17.0342 6.51256 16.5256 6.29059 15.9954 6.29059H5.99826C4.40742 6.29059 2.88174 6.9565 1.75685 8.14183C0.631958 9.32716 0 10.9348 0 12.6111V33.6795C0 35.3558 0.631958 36.9634 1.75685 38.1488C2.88174 39.3341 4.40742 40 5.99826 40H33.9901C35.581 40 37.1067 39.3341 38.2316 38.1488C39.3564 36.9634 39.9884 35.3558 39.9884 33.6795V18.9316C39.9884 18.3729 39.7778 17.837 39.4028 17.4419C39.0278 17.0468 38.5193 16.8248 37.989 16.8248V16.8669Z" fill="#223552"/>
</svg>
