<svg width="60" height="55" viewBox="0 0 60 55" fill="none" xmlns="http://www.w3.org/2000/svg">
<path id="l-tickets-icon" d="M5.13064 47.1616C4.84533 46.7443 4.5089 46.4172 4.14065 46.1991C3.41027 45.7407 2.59105 45.7407 1.86068 46.1991C1.49243 46.4172 1.156 46.7443 0.870687 47.1616C0.597569 47.5975 0.383476 48.1115 0.240695 48.6741C0.0109591 49.5087 -0.0518082 50.4286 0.0603129 51.3177C0.172434 52.2068 0.454419 53.0253 0.870687 53.6698C1.16229 54.0746 1.49713 54.4002 1.86068 54.6323C2.21977 54.8748 2.60806 55 3.00066 55C3.39327 55 3.78155 54.8748 4.14065 54.6323C4.5042 54.4002 4.83904 54.0746 5.13064 53.6698C5.54691 53.0253 5.82889 52.2068 5.94101 51.3177C6.05313 50.4286 5.99037 49.5087 5.76063 48.6741C5.61785 48.1115 5.40376 47.5975 5.13064 47.1616ZM15.0005 9.16649H57C57.7957 9.16649 58.5587 8.68361 59.1213 7.82409C59.6839 6.96456 60 5.7988 60 4.58324C60 3.36769 59.6839 2.20193 59.1213 1.3424C58.5587 0.482877 57.7957 0 57 0H15.0005C14.2049 0 13.4418 0.482877 12.8792 1.3424C12.3166 2.20193 12.0006 3.36769 12.0006 4.58324C12.0006 5.7988 12.3166 6.96456 12.8792 7.82409C13.4418 8.68361 14.2049 9.16649 15.0005 9.16649ZM5.13064 24.2454C4.70877 23.6094 4.17306 23.1786 3.5911 23.0073C3.00914 22.836 2.407 22.9319 1.86068 23.2829C1.49713 23.515 1.16229 23.8405 0.870687 24.2454C0.597569 24.6812 0.383476 25.1952 0.240695 25.7578C0.0819809 26.3064 0 26.8997 0 27.4995C0 28.0993 0.0819809 28.6925 0.240695 29.2411C0.392619 29.7965 0.605698 30.3081 0.870687 30.7536C1.16229 31.1584 1.49713 31.4839 1.86068 31.7161C2.21977 31.9585 2.60806 32.0838 3.00066 32.0838C3.39327 32.0838 3.78155 31.9585 4.14065 31.7161C4.5042 31.4839 4.83904 31.1584 5.13064 30.7536C5.39563 30.3081 5.60871 29.7965 5.76063 29.2411C5.91934 28.6925 6.00133 28.0993 6.00133 27.4995C6.00133 26.8997 5.91934 26.3064 5.76063 25.7578C5.61785 25.1952 5.40376 24.6812 5.13064 24.2454ZM57 22.9162H15.0005C14.2049 22.9162 13.4418 23.3991 12.8792 24.2586C12.3166 25.1182 12.0006 26.2839 12.0006 27.4995C12.0006 28.715 12.3166 29.8808 12.8792 30.7403C13.4418 31.5998 14.2049 32.0827 15.0005 32.0827H57C57.7957 32.0827 58.5587 31.5998 59.1213 30.7403C59.6839 29.8808 60 28.715 60 27.4995C60 26.2839 59.6839 25.1182 59.1213 24.2586C58.5587 23.3991 57.7957 22.9162 57 22.9162ZM5.13064 1.32914C4.84533 0.911879 4.5089 0.584796 4.14065 0.366659C3.59432 0.0156769 2.99219 -0.0802156 2.41023 0.0910791C1.82827 0.262374 1.29255 0.693181 0.870687 1.32914C0.605698 1.77464 0.392619 2.28619 0.240695 2.84161C0.0819809 3.39023 0 3.98343 0 4.58324C0 5.18306 0.0819809 5.77626 0.240695 6.32488C0.392619 6.8803 0.605698 7.39185 0.870687 7.83735C1.16229 8.24219 1.49713 8.56773 1.86068 8.79983C2.407 9.15081 3.00914 9.24671 3.5911 9.07541C4.17306 8.90412 4.70877 8.47331 5.13064 7.83735C5.39563 7.39185 5.60871 6.8803 5.76063 6.32488C5.91934 5.77626 6.00133 5.18306 6.00133 4.58324C6.00133 3.98343 5.91934 3.39023 5.76063 2.84161C5.60871 2.28619 5.39563 1.77464 5.13064 1.32914ZM57 45.8324H15.0005C14.2049 45.8324 13.4418 46.3153 12.8792 47.1748C12.3166 48.0344 12.0006 49.2001 12.0006 50.4157C12.0006 51.6312 12.3166 52.797 12.8792 53.6565C13.4418 54.5161 14.2049 54.9989 15.0005 54.9989H57C57.7957 54.9989 58.5587 54.5161 59.1213 53.6565C59.6839 52.797 60 51.6312 60 50.4157C60 49.2001 59.6839 48.0344 59.1213 47.1748C58.5587 46.3153 57.7957 45.8324 57 45.8324Z" fill="#7675D2"/>
</svg>
