<svg width="60" height="55" viewBox="0 0 60 55" fill="none" xmlns="http://www.w3.org/2000/svg">
<path id="logout" d="M0 27.5C0 28.2293 0.395089 28.9288 1.09835 29.4445C1.80161 29.9603 2.75544 30.25 3.75 30.25H32.2125L23.5875 36.5475C23.236 36.8032 22.957 37.1073 22.7667 37.4424C22.5763 37.7775 22.4783 38.137 22.4783 38.5C22.4783 38.863 22.5763 39.2225 22.7667 39.5576C22.957 39.8927 23.236 40.1968 23.5875 40.4525C23.9361 40.7103 24.3509 40.9148 24.8078 41.0545C25.2648 41.1941 25.755 41.2659 26.25 41.2659C26.745 41.2659 27.2352 41.1941 27.6922 41.0545C28.1491 40.9148 28.5639 40.7103 28.9125 40.4525L43.9125 29.4525C44.2539 29.191 44.5215 28.8826 44.7 28.545C45.0751 27.8755 45.0751 27.1245 44.7 26.455C44.5215 26.1174 44.2539 25.809 43.9125 25.5475L28.9125 14.5475C28.5629 14.2911 28.1478 14.0877 27.6909 13.9489C27.2341 13.8102 26.7445 13.7387 26.25 13.7387C25.7555 13.7387 25.2659 13.8102 24.8091 13.9489C24.3522 14.0877 23.9371 14.2911 23.5875 14.5475C23.2379 14.8039 22.9605 15.1083 22.7713 15.4433C22.582 15.7783 22.4847 16.1374 22.4847 16.5C22.4847 16.8626 22.582 17.2217 22.7713 17.5567C22.9605 17.8917 23.2379 18.1961 23.5875 18.4525L32.2125 24.75H3.75C2.75544 24.75 1.80161 25.0397 1.09835 25.5555C0.395089 26.0712 0 26.7707 0 27.5ZM48.75 0H11.25C8.26631 0 5.40483 0.869194 3.29505 2.41637C1.18526 3.96354 0 6.06196 0 8.25V16.5C0 17.2293 0.395089 17.9288 1.09835 18.4445C1.80161 18.9603 2.75544 19.25 3.75 19.25C4.74456 19.25 5.69839 18.9603 6.40165 18.4445C7.10491 17.9288 7.5 17.2293 7.5 16.5V8.25C7.5 7.52065 7.89509 6.82118 8.59835 6.30546C9.30161 5.78973 10.2554 5.5 11.25 5.5H48.75C49.7446 5.5 50.6984 5.78973 51.4017 6.30546C52.1049 6.82118 52.5 7.52065 52.5 8.25V46.75C52.5 47.4793 52.1049 48.1788 51.4017 48.6945C50.6984 49.2103 49.7446 49.5 48.75 49.5H11.25C10.2554 49.5 9.30161 49.2103 8.59835 48.6945C7.89509 48.1788 7.5 47.4793 7.5 46.75V38.5C7.5 37.7707 7.10491 37.0712 6.40165 36.5555C5.69839 36.0397 4.74456 35.75 3.75 35.75C2.75544 35.75 1.80161 36.0397 1.09835 36.5555C0.395089 37.0712 0 37.7707 0 38.5V46.75C0 48.938 1.18526 51.0365 3.29505 52.5836C5.40483 54.1308 8.26631 55 11.25 55H48.75C51.7337 55 54.5952 54.1308 56.705 52.5836C58.8147 51.0365 60 48.938 60 46.75V8.25C60 6.06196 58.8147 3.96354 56.705 2.41637C54.5952 0.869194 51.7337 0 48.75 0Z" fill="#7675D2"/>
</svg>
