<svg width="40" height="40" viewBox="0 0 40 40" fill="none" xmlns="http://www.w3.org/2000/svg">
<path id="Vector" d="M39.3573 9.06474L36.5223 6.24581L39.3573 3.42688C39.7332 3.05042 39.9444 2.53982 39.9444 2.00742C39.9444 1.47502 39.7332 0.964424 39.3573 0.58796C38.9813 0.211495 38.4714 0 37.9398 0C37.4081 0 36.8982 0.211495 36.5223 0.58796L15.4796 21.6599C13.4153 20.2961 10.919 19.7482 8.47435 20.1223C6.02968 20.4964 3.81071 21.7659 2.24742 23.6849C0.684124 25.6038 -0.112196 28.0355 0.0127596 30.5089C0.137715 32.9822 1.17505 35.321 2.92376 37.0722C4.67247 38.8233 7.00805 39.8621 9.47794 39.9872C11.9478 40.1124 14.3762 39.3149 16.2925 37.7495C18.2087 36.184 19.4765 33.9619 19.8501 31.5139C20.2237 29.0658 19.6765 26.566 18.3146 24.4989L28.0573 14.7226L30.8723 17.5615C31.0589 17.7468 31.2801 17.8934 31.5233 17.9929C31.7666 18.0924 32.0271 18.1428 32.2898 18.1413C32.5525 18.1428 32.813 18.0924 33.0563 17.9929C33.2995 17.8934 33.5207 17.7468 33.7073 17.5615C33.8944 17.3756 34.0429 17.1545 34.1443 16.9109C34.2457 16.6673 34.2978 16.406 34.2978 16.142C34.2978 15.8781 34.2457 15.6168 34.1443 15.3732C34.0429 15.1296 33.8944 14.9084 33.7073 14.7226L30.8723 12.0036L33.7073 9.1647L36.5223 12.0036C36.7089 12.1889 36.9301 12.3355 37.1733 12.435C37.4166 12.5345 37.677 12.5849 37.9398 12.5834C38.2025 12.5849 38.463 12.5345 38.7062 12.435C38.9495 12.3355 39.1707 12.1889 39.3573 12.0036C39.5599 11.8164 39.7217 11.5892 39.8323 11.3363C39.9429 11.0834 40 10.8103 40 10.5342C40 10.2581 39.9429 9.98497 39.8323 9.73207C39.7217 9.47917 39.5599 9.25195 39.3573 9.06474ZM9.98932 35.9945C8.80474 35.9945 7.64675 35.6427 6.6618 34.9837C5.67685 34.3247 4.90918 33.3879 4.45585 32.292C4.00253 31.1961 3.88392 29.9901 4.11502 28.8267C4.34613 27.6632 4.91656 26.5945 5.75419 25.7557C6.59182 24.917 7.65903 24.3457 8.82085 24.1143C9.98268 23.8829 11.1869 24.0017 12.2814 24.4556C13.3758 24.9096 14.3112 25.6783 14.9693 26.6646C15.6274 27.6509 15.9787 28.8105 15.9787 29.9968C15.9787 31.5875 15.3477 33.113 14.2245 34.2378C13.1012 35.3626 11.5778 35.9945 9.98932 35.9945Z" fill="#223552"/>
</svg>
