<svg width="29" height="26" viewBox="0 0 29 26" fill="none" xmlns="http://www.w3.org/2000/svg">
<path id="Vector" d="M28.5928 23.8081L23.2165 19.0233C25.3034 16.6887 26.314 13.7253 26.0406 10.7426C25.7672 7.75994 24.2304 4.98461 21.7464 2.9873C19.2623 0.989992 16.0198 -0.0774791 12.6855 0.00438298C9.3512 0.086245 6.17858 1.31122 3.81999 3.42742C1.4614 5.54362 0.0961233 8.39021 0.00488499 11.3818C-0.0863534 14.3735 1.10338 17.2828 3.32946 19.5116C5.55554 21.7403 8.64875 23.1191 11.9731 23.3645C15.2974 23.6098 18.6001 22.703 21.2022 20.8306L26.535 25.6154C26.6697 25.7373 26.83 25.834 27.0066 25.9C27.1832 25.966 27.3726 26 27.5639 26C27.7552 26 27.9446 25.966 28.1212 25.9C28.2978 25.834 28.4581 25.7373 28.5928 25.6154C28.854 25.373 29 25.0489 29 24.7118C29 24.3746 28.854 24.0505 28.5928 23.8081ZM13.0725 20.8306C11.0662 20.8306 9.10501 20.2968 7.43685 19.2967C5.76868 18.2966 4.4685 16.8752 3.70073 15.2121C2.93296 13.549 2.73207 11.719 3.12348 9.95349C3.51489 8.18797 4.481 6.56624 5.89966 5.29337C7.31832 4.0205 9.12581 3.15367 11.0935 2.80249C13.0613 2.4513 15.1009 2.63154 16.9545 3.32041C18.808 4.00929 20.3923 5.17585 21.5069 6.67258C22.6216 8.16932 23.2165 9.929 23.2165 11.7291C23.2165 14.143 22.1478 16.458 20.2454 18.1648C18.343 19.8717 15.7629 20.8306 13.0725 20.8306Z" fill="#7675D2"/>
</svg>
